<?xml version="1.0" encoding="utf-8"?>
<svg class="sns-logo-twitter" viewBox="0 0 100 100" xmlns="http://www.w3.org/2000/svg">
    <defs>
        <style>
            .twitter-cls-1{fill:#1da1f2;}
            .twitter-cls-2{fill:#fff;}
            .twitter-cls-3{fill:none;}
            .sns-logo-twitter:hover .twitter-cls-1 {fill: #09689F;}
            .sns-logo-twitter:hover .twitter-cls-2 {fill: #CCCCCC;}
        </style>
    </defs>
    <g id="Dark_Blue" data-name="Dark Blue">
        <rect class="twitter-cls-1" width="100" height="100"/>
    </g>
    <g id="Logo_FIXED" data-name="Logo — FIXED">
        <path class="twitter-cls-2" d="M 35.373 75.6 C 58.617 75.6 71.327 55.979 71.327 38.965 C 71.327 38.407 71.327 37.852 71.296 37.3 C 73.771 35.477 75.906 33.221 77.6 30.635 C 75.29 31.677 72.847 32.359 70.341 32.661 C 72.98 31.052 74.951 28.521 75.896 25.539 C 73.421 27.039 70.701 28.096 67.867 28.665 C 61.204 21.438 49.356 24.278 46.543 33.778 C 45.907 35.932 45.835 38.217 46.338 40.408 C 36.174 39.889 26.708 34.999 20.291 26.955 C 16.934 32.838 18.649 40.365 24.203 44.143 C 22.191 44.083 20.22 43.53 18.464 42.532 C 18.464 42.584 18.464 42.64 18.464 42.695 C 18.464 48.824 22.704 54.103 28.607 55.317 C 26.739 55.833 24.788 55.909 22.899 55.538 C 24.552 60.783 29.295 64.376 34.706 64.479 C 30.23 68.062 24.696 70.008 19.008 70.002 C 18.002 70 16.996 69.938 16 69.816 C 21.78 73.595 28.505 75.599 35.373 75.59"/>
        <rect class="twitter-cls-3" width="100" height="100"/>
    </g>
</svg>
